<svg width="324" height="213" viewBox="0 0 324 213" fill="none" xmlns="http://www.w3.org/2000/svg">
<rect y="0.138672" width="324" height="208" rx="12" fill="url(#paint0_linear_1_501)"/>
<mask id="mask0_1_501" style="mask-type:alpha" maskUnits="userSpaceOnUse" x="0" y="0" width="324" height="209">
<rect y="0.138672" width="324" height="208" rx="12" fill="white"/>
</mask>
<g mask="url(#mask0_1_501)">
<ellipse opacity="0.2" cx="295.301" cy="-16.8613" rx="160.5" ry="113" fill="#004FC4"/>
<ellipse opacity="0.2" cx="29.3008" cy="225.139" rx="160.5" ry="113" fill="#004FC4"/>
</g>
<g filter="url(#filter0_dd_1_501)">
<rect x="20.5" y="72.6387" width="283" height="37" rx="7.5" fill="#FAFAFC" stroke="#E4E4EB"/>
<path d="M37.4091 97.1387H38.8182V91.9341H45.0227V97.1387H46.4318V85.5023H45.0227V90.6841H38.8182V85.5023H37.4091V97.1387ZM52.6165 97.3205C54.9801 97.3205 56.571 95.525 56.571 92.8205C56.571 90.0932 54.9801 88.2978 52.6165 88.2978C50.2528 88.2978 48.6619 90.0932 48.6619 92.8205C48.6619 95.525 50.2528 97.3205 52.6165 97.3205ZM52.6165 96.1159C50.821 96.1159 50.0028 94.5705 50.0028 92.8205C50.0028 91.0705 50.821 89.5023 52.6165 89.5023C54.4119 89.5023 55.2301 91.0705 55.2301 92.8205C55.2301 94.5705 54.4119 96.1159 52.6165 96.1159ZM63.3906 95.3205L60.3906 88.4114H58.6179V97.1387H59.9588V90.3375L62.8452 97.1387H63.9361L66.8224 90.4625V97.1387H68.1634V88.4114H66.4361L63.3906 95.3205ZM74.277 97.3205C76.0497 97.3205 77.3452 96.4341 77.7543 95.1159L76.4588 94.7523C76.1179 95.6614 75.3281 96.1159 74.277 96.1159C72.7031 96.1159 71.6179 95.0989 71.5554 93.2296H77.8906V92.6614C77.8906 89.4114 75.9588 88.2978 74.1406 88.2978C71.777 88.2978 70.2088 90.1614 70.2088 92.8432C70.2088 95.525 71.7543 97.3205 74.277 97.3205ZM71.5554 92.0705C71.6463 90.7125 72.6065 89.5023 74.1406 89.5023C75.5952 89.5023 76.527 90.5932 76.527 92.0705H71.5554ZM79.9304 100.411H81.2713V95.7978H81.3849C81.6804 96.275 82.2486 97.3205 83.9304 97.3205C86.1122 97.3205 87.6349 95.5705 87.6349 92.7978C87.6349 90.0478 86.1122 88.2978 83.9077 88.2978C82.2031 88.2978 81.6804 89.3432 81.3849 89.7978H81.2259V88.4114H79.9304V100.411ZM81.2486 92.775C81.2486 90.8205 82.1122 89.5023 83.7486 89.5023C85.4531 89.5023 86.294 90.9341 86.294 92.775C86.294 94.6387 85.4304 96.1159 83.7486 96.1159C82.1349 96.1159 81.2486 94.7523 81.2486 92.775ZM94.1804 97.1387H95.5213V93.4569H96.7259L99.5895 97.1387H101.317L97.7486 92.6159L101.271 88.4114H99.544L96.4077 92.2069H95.5213V88.4114H94.1804V97.1387ZM105.342 97.3432C106.865 97.3432 107.661 96.525 107.933 95.9569H108.001V97.1387H109.342V91.3887C109.342 88.6159 107.229 88.2978 106.115 88.2978C104.797 88.2978 103.297 88.7523 102.615 90.3432L103.888 90.7978C104.183 90.1614 104.882 89.4796 106.161 89.4796C107.393 89.4796 108.001 90.133 108.001 91.2523V91.2978C108.001 91.9455 107.342 91.8887 105.751 92.0932C104.132 92.3034 102.365 92.6614 102.365 94.6614C102.365 96.3659 103.683 97.3432 105.342 97.3432ZM105.547 96.1387C104.479 96.1387 103.706 95.6614 103.706 94.7296C103.706 93.7069 104.638 93.3887 105.683 93.2523C106.251 93.1841 107.774 93.025 108.001 92.7523V93.9796C108.001 95.0705 107.138 96.1387 105.547 96.1387ZM111.79 100.411H113.131V95.7978H113.244C113.54 96.275 114.108 97.3205 115.79 97.3205C117.972 97.3205 119.494 95.5705 119.494 92.7978C119.494 90.0478 117.972 88.2978 115.767 88.2978C114.062 88.2978 113.54 89.3432 113.244 89.7978H113.085V88.4114H111.79V100.411ZM113.108 92.775C113.108 90.8205 113.972 89.5023 115.608 89.5023C117.312 89.5023 118.153 90.9341 118.153 92.775C118.153 94.6387 117.29 96.1159 115.608 96.1159C113.994 96.1159 113.108 94.7523 113.108 92.775ZM120.399 89.6614H123.286V97.1387H124.626V89.6614H127.49V88.4114H120.399V89.6614ZM130.787 91.5705V88.4114H129.446V97.1387H133.105C135.151 97.1387 136.264 95.8887 136.264 94.3205C136.264 92.7296 135.151 91.5705 133.105 91.5705H130.787ZM137.651 97.1387H138.991V88.4114H137.651V97.1387ZM130.787 92.8205H133.105C134.168 92.8205 134.923 93.4682 134.923 94.3887C134.923 95.2694 134.168 95.8887 133.105 95.8887H130.787V92.8205Z" fill="#8F90A6"/>
<path d="M21.0568 60.1387H22.1136V56.2353H26.767V60.1387H27.8239V51.4114H26.767V55.2978H22.1136V51.4114H21.0568V60.1387ZM37.3033 55.775C37.3033 53.0137 35.6839 51.2921 33.451 51.2921C31.218 51.2921 29.5987 53.0137 29.5987 55.775C29.5987 58.5364 31.218 60.258 33.451 60.258C35.6839 60.258 37.3033 58.5364 37.3033 55.775ZM36.2805 55.775C36.2805 58.0421 35.0362 59.2694 33.451 59.2694C31.8658 59.2694 30.6214 58.0421 30.6214 55.775C30.6214 53.508 31.8658 52.2807 33.451 52.2807C35.0362 52.2807 36.2805 53.508 36.2805 55.775ZM39.0803 51.4114V60.1387H40.0689V53.508H40.1541L42.8814 60.1387H43.8359L46.5632 53.508H46.6484V60.1387H47.6371V51.4114H46.3757L43.4098 58.6557H43.3075L40.3416 51.4114H39.0803ZM49.756 60.1387H55.0913V59.2012H50.8129V56.2353H54.7504V55.2978H50.8129V52.3489H55.0231V51.4114H49.756V60.1387ZM56.9279 60.1387H57.9847V56.9512H59.8938C61.9265 56.9512 62.8427 55.7154 62.8427 54.1728C62.8427 52.6301 61.9265 51.4114 59.8768 51.4114H56.9279V60.1387ZM57.9847 56.0137V52.3489H59.8427C61.2617 52.3489 61.8029 53.1245 61.8029 54.1728C61.8029 55.2211 61.2617 56.0137 59.8597 56.0137H57.9847ZM73.0508 60.1387H74.3121L70.6644 55.2466L74.1928 51.4114H72.9315L69.4371 55.1955H68.9769V51.4114H67.9201V60.1387H68.9769V56.133H70.0508L73.0508 60.1387ZM76.0359 60.1387L76.9137 57.6671H80.4421L81.32 60.1387H82.4279L79.2234 51.4114H78.1325L74.9279 60.1387H76.0359ZM77.2461 56.7296L78.6438 52.7921H78.712L80.1097 56.7296H77.2461ZM83.7873 60.1387H84.8441V56.9512H86.7532C88.7859 56.9512 89.7021 55.7154 89.7021 54.1728C89.7021 52.6301 88.7859 51.4114 86.7362 51.4114H83.7873V60.1387ZM84.8441 56.0137V52.3489H86.7021C88.1211 52.3489 88.6623 53.1245 88.6623 54.1728C88.6623 55.2211 88.1211 56.0137 86.7191 56.0137H84.8441ZM90.9272 52.3489H93.6715V60.1387H94.7283V52.3489H97.4727V51.4114H90.9272V52.3489ZM100.161 55.0762V51.4114H99.1037V60.1387H102.376C104.251 60.1387 105.274 59.0819 105.274 57.5648C105.274 56.0478 104.251 55.0762 102.376 55.0762H100.161ZM100.161 56.0137H102.376C103.57 56.0137 104.234 56.7125 104.234 57.5478C104.234 58.4 103.57 59.2182 102.376 59.2182H100.161V56.0137ZM107.183 51.4114H106.126V60.1387H107.183V51.4114Z" fill="white"/>
<path d="M20.3068 140.252H21.3125V138.139H27.4659V140.235H28.4716V137.201H27.4659V129.411H22.2841L22.0966 133.093C21.9773 135.599 21.4489 136.673 20.8693 137.201H20.3068V140.252ZM22.1307 137.201C22.6591 136.366 23 135.002 23.1023 133.093L23.2386 130.349H26.4602V137.201H22.1307ZM30.0685 138.139H35.4038V137.201H31.1254V134.235H35.0629V133.298H31.1254V130.349H35.3356V129.411H30.0685V138.139ZM37.2404 129.411V138.139H38.2631L43.0188 131.286H43.104V138.139H44.1609V129.411H43.1381L38.3654 136.281H38.2802V129.411H37.2404ZM41.5359 127.23C41.5359 127.673 41.2972 128.065 40.7006 128.065C40.104 128.065 39.8825 127.673 39.8825 127.23H38.945C38.945 128.15 39.6268 128.798 40.7006 128.798C41.7915 128.798 42.4734 128.15 42.4734 127.23H41.5359ZM53.2983 132.139C52.9744 130.349 51.5426 129.292 49.7869 129.292C47.554 129.292 45.9347 131.014 45.9347 133.775C45.9347 136.536 47.554 138.258 49.7869 138.258C51.5426 138.258 52.9744 137.201 53.2983 135.411H52.2415C51.9858 136.622 50.946 137.269 49.7869 137.269C48.2017 137.269 46.9574 136.042 46.9574 133.775C46.9574 131.508 48.2017 130.281 49.7869 130.281C50.946 130.281 51.9858 130.928 52.2415 132.139H53.2983ZM54.5288 130.349H57.2731V138.139H58.3299V130.349H61.0742V129.411H54.5288V130.349ZM62.7053 138.139H65.8587C67.9212 138.139 68.7734 137.133 68.7734 135.82C68.7734 134.44 67.8189 133.69 67.0178 133.639V133.553C67.7678 133.349 68.4325 132.855 68.4325 131.73C68.4325 130.451 67.5803 129.411 65.7564 129.411H62.7053V138.139ZM63.7621 137.201V134.167H65.9098C67.0518 134.167 67.7678 134.934 67.7678 135.82C67.7678 136.588 67.2393 137.201 65.8587 137.201H63.7621ZM63.7621 133.247V130.349H65.7564C66.9155 130.349 67.4268 130.963 67.4268 131.73C67.4268 132.65 66.6768 133.247 65.7223 133.247H63.7621ZM70.9702 138.258H71.5327C72.8622 138.258 73.2543 137.542 73.6122 136.724L76.6293 129.411H75.5043L73.3054 134.832L70.902 129.411H69.7599L72.777 136.093L72.6406 136.417C72.4531 136.843 72.1463 137.269 71.5156 137.269H70.9702V138.258ZM77.9982 138.139H83.3335V137.201H79.055V134.235H82.9925V133.298H79.055V130.349H83.2653V129.411H77.9982V138.139ZM84.6928 130.349H87.4371V138.139H88.494V130.349H91.2383V129.411H84.6928V130.349ZM95.4943 140.252H96.5V138.139H102.653V140.235H103.659V137.201H102.653V129.411H97.4716L97.2841 133.093C97.1648 135.599 96.6364 136.673 96.0568 137.201H95.4943V140.252ZM97.3182 137.201C97.8466 136.366 98.1875 135.002 98.2898 133.093L98.4261 130.349H101.648V137.201H97.3182ZM112.62 133.775C112.62 131.014 111 129.292 108.767 129.292C106.534 129.292 104.915 131.014 104.915 133.775C104.915 136.536 106.534 138.258 108.767 138.258C111 138.258 112.62 136.536 112.62 133.775ZM111.597 133.775C111.597 136.042 110.353 137.269 108.767 137.269C107.182 137.269 105.938 136.042 105.938 133.775C105.938 131.508 107.182 130.281 108.767 130.281C110.353 130.281 111.597 131.508 111.597 133.775Z" fill="white"/>
<rect x="20.5" y="150.639" width="71" height="37" rx="7.5" fill="#FAFAFC" stroke="#E4E4EB"/>
<path d="M42 173.32L39 166.411H37.2273V175.139H38.5682V168.338L41.4545 175.139H42.5455L45.4318 168.463V175.139H46.7727V166.411H45.0455L42 173.32ZM54 173.32L51 166.411H49.2273V175.139H50.5682V168.338L53.4545 175.139H54.5455L57.4318 168.463V175.139H58.7727V166.411H57.0455L54 173.32Z" fill="#8F90A6"/>
<path d="M102.489 162.957H101.262L97.5121 176.889H98.7393L102.489 162.957Z" fill="white"/>
<rect x="108.5" y="150.639" width="71" height="37" rx="7.5" fill="#FAFAFC" stroke="#E4E4EB"/>
<path d="M130.614 166.411H125.227V175.139H126.568V167.661H130.614V166.411ZM137.957 166.411H132.571V175.139H133.912V167.661H137.957V166.411Z" fill="#8F90A6"/>
</g>
<defs>
<filter id="filter0_dd_1_501" x="-16" y="-7.86133" width="356" height="240" filterUnits="userSpaceOnUse" color-interpolation-filters="sRGB">
<feFlood flood-opacity="0" result="BackgroundImageFix"/>
<feColorMatrix in="SourceAlpha" type="matrix" values="0 0 0 0 0 0 0 0 0 0 0 0 0 0 0 0 0 0 127 0" result="hardAlpha"/>
<feOffset dy="8"/>
<feGaussianBlur stdDeviation="8"/>
<feColorMatrix type="matrix" values="0 0 0 0 0.333333 0 0 0 0 0.341176 0 0 0 0 0.439216 0 0 0 0.16 0"/>
<feBlend mode="normal" in2="BackgroundImageFix" result="effect1_dropShadow_1_501"/>
<feColorMatrix in="SourceAlpha" type="matrix" values="0 0 0 0 0 0 0 0 0 0 0 0 0 0 0 0 0 0 127 0" result="hardAlpha"/>
<feOffset dy="2"/>
<feGaussianBlur stdDeviation="2"/>
<feColorMatrix type="matrix" values="0 0 0 0 0.156863 0 0 0 0 0.160784 0 0 0 0 0.239216 0 0 0 0.04 0"/>
<feBlend mode="normal" in2="effect1_dropShadow_1_501" result="effect2_dropShadow_1_501"/>
<feBlend mode="normal" in="SourceGraphic" in2="effect2_dropShadow_1_501" result="shape"/>
</filter>
<linearGradient id="paint0_linear_1_501" x1="0" y1="0.138672" x2="189.119" y2="294.729" gradientUnits="userSpaceOnUse">
<stop stop-color="#A6C8FF"/>
<stop offset="1" stop-color="#0043CE"/>
</linearGradient>
</defs>
</svg>
