<svg width="44" height="25" viewBox="0 0 44 25" fill="none" xmlns="http://www.w3.org/2000/svg">
<path d="M11.4601 13.6462C15.0405 13.6462 16.7051 11.4791 16.7051 8.87235C16.7051 6.26555 15.0405 4.09846 11.4601 4.09846H5.83817V11.9189H3.29418V13.6462H5.83817V15.1538H3.29418V16.8812H5.83817V20.1789H7.78541V16.8812H11.3344V15.1538H7.78541V13.6462H11.4601ZM7.78541 11.9189V5.82585H11.4601C13.7214 5.82585 14.7892 7.11355 14.7892 8.87235C14.7892 10.6312 13.7214 11.9189 11.4601 11.9189H7.78541Z" fill="#8F90A6"/>
<path fill-rule="evenodd" clip-rule="evenodd" d="M5.54581 3.80534H11.4608C13.3114 3.80534 14.7037 4.36685 15.6337 5.30105C16.5621 6.23373 16.9989 7.507 16.9989 8.87232C16.9989 10.2376 16.5621 11.5109 15.6337 12.4436C14.7037 13.3778 13.3114 13.9393 11.4608 13.9393H8.07924V14.8607H11.6283V17.1742H8.07924V20.472H5.54581V17.1742H3.00183V14.8607H5.54581V13.9393H3.00183V11.6257H5.54581V3.80534ZM5.83817 4.09846H11.4601C15.0405 4.09846 16.7051 6.26555 16.7051 8.87235C16.7051 11.4791 15.0405 13.6462 11.4601 13.6462H7.78541V15.1538H11.3344V16.8812H7.78541V20.1789H5.83817V16.8812H3.29418V15.1538H5.83817V13.6462H3.29418V11.9189H5.83817V4.09846ZM8.07924 6.11891V11.6257H11.4608C12.5361 11.6257 13.2865 11.3206 13.7676 10.8464C14.2489 10.372 14.4969 9.69272 14.4969 8.87232C14.4969 8.05192 14.2489 7.37264 13.7676 6.89825C13.2865 6.42404 12.5361 6.11891 11.4608 6.11891H8.07924ZM7.78541 11.9189H11.4601C13.7214 11.9189 14.7892 10.6312 14.7892 8.87235C14.7892 7.11355 13.7214 5.82585 11.4601 5.82585H7.78541V11.9189Z" fill="#8F90A6"/>
<path d="M28.2071 10.1387C27.7617 10.1387 27.5386 10.6772 27.8536 10.9922L31.6464 14.7851C31.8417 14.9804 32.1583 14.9804 32.3536 14.7851L36.1464 10.9922C36.4614 10.6772 36.2383 10.1387 35.7929 10.1387H28.2071Z" fill="#8F90A6"/>
</svg>
